:FULLY-SPECIFIED
:FORCE-ALL-JOINTS-BE-3DOF
:DEGREES
747
root 4.1551 16.724 14.4831 -163.396 -8.86125 -170.955
lfemur -32.2855 1.28442 -15.024
ltibia 45.7959 -0 0
lfoot -30.1574 5.97152 0.208974
ltoes 5.02657 -0 0
rfemur -27.8461 -32.6412 11.2445
rtibia 106.555 -0 0
rfoot 15.1245 4.04441 0.0323728
rtoes 16.264 -0 0
lowerback 2.71101 6.73784 -2.10895
upperback -1.2941 8.84715 -1.29515
thorax -2.94122 4.42675 -0.627491
lowerneck -6.54419 -8.54955 -1.34918
upperneck -2.18642 -11.5234 5.5083
head 0.833541 -5.79154 1.59958
lclavicle 2.27542e-14 4.02217e-14 -1.21764e-30
lhumerus -54.6184 -4.97986 75.4652
lradius 47.934 -0 0
lwrist 16.196 0 0
lhand -28.266 -3.97149 0.00949803
lfingers 7.12502 -0 0
lthumb -1.64278 25.9934 0.00949339
rclavicle 2.27542e-14 4.02217e-14 -1.21764e-30
rhumerus 26.7973 39.5968 -66.7675
rradius 96.3563 -0 0
rwrist -0.888111 0 0
rhand -20.9259 -20.6991 0.181501
rfingers 7.12502 -0 0
rthumb 5.44459 -50.5499 0.180001
748
root 4.11579 16.5847 14.6785 -163.269 -6.82781 -171.155
lfemur -34.0049 3.08018 -16.1862
ltibia 48.2933 -0 0
lfoot -30.8157 6.98189 0.103243
ltoes 5.1005 -0 0
rfemur -28.0002 -32.859 12.9991
rtibia 104.826 -0 0
rfoot 14.5249 3.15618 0.0285828
rtoes 16.326 -0 0
lowerback 2.95585 6.50939 -2.52631
upperback -1.1604 8.50891 -1.47916
thorax -2.97231 4.26027 -0.594237
lowerneck -6.40026 -8.64571 -1.52784
upperneck -2.25238 -11.6517 5.93587
head 0.833739 -5.85872 1.76336
lclavicle 1.09824e-14 3.6501e-14 -9.3017e-31
lhumerus -53.41 -4.77665 77.7211
lradius 48.1503 -0 0
lwrist 15.2364 0 0
lhand -28.9857 -4.17111 0.00776434
lfingers 7.12502 -0 0
lthumb -2.33791 25.7891 0.00772426
rclavicle 1.09824e-14 3.6501e-14 -9.3017e-31
rhumerus 23.5199 42.3187 -69.9249
rradius 96.3726 -0 0
rwrist 0.226453 0 0
rhand -19.156 -19.2935 0.139052
rfingers 7.12502 -0 0
rthumb 7.15352 -49.1076 0.13784
749
root 4.07105 16.4576 14.8682 -163.18 -4.64529 -171.318
lfemur -35.5963 4.86767 -17.3224
ltibia 50.5731 -0 0
lfoot -31.3863 7.91 0.015949
ltoes 5.31952 -0 0
rfemur -28.0459 -33.014 14.6191
rtibia 103.052 -0 0
rfoot 14.0424 2.21178 0.0180212
rtoes 16.5918 -0 0
lowerback 3.17579 6.30182 -2.90051
upperback -1.03631 8.20366 -1.67689
thorax -2.99112 4.11112 -0.596476
lowerneck -6.25899 -8.73277 -1.68472
upperneck -2.29319 -11.7611 6.29554
head 0.835813 -5.91204 1.90264
lclavicle 5.09709e-16 3.24199e-14 -3.20067e-31
lhumerus -52.3356 -4.78156 79.8154
lradius 48.6059 -0 0
lwrist 14.3948 0 0
lhand -29.5824 -4.41961 0.00431794
lfingers 7.12502 -0 0
lthumb -2.9142 25.5366 0.00426874
rclavicle 5.09709e-16 3.24199e-14 -3.20067e-31
rhumerus 19.9844 44.749 -73.2311
rradius 96.1813 -0 0
rwrist 1.25593 0 0
rhand -17.6807 -18.1193 0.0697092
rfingers 7.12502 -0 0
rthumb 8.57789 -47.903 0.0690366
750
root 4.01886 16.3437 15.0506 -163.144 -2.24277 188.58
lfemur -36.9621 6.6426 -18.4013
ltibia 52.5687 0 0
lfoot -32.0197 8.77153 0
ltoes 5.65235 0 0
rfemur -27.9354 -33.0942 16.05
rtibia 101.216 0 0
rfoot 13.6582 1.2257 0
rtoes 17.0552 0 0
lowerback 3.35945 6.13388 -3.20855
upperback -0.926159 7.96056 -1.88105
thorax -2.99375 3.99454 -0.639791
lowerneck -6.12193 -8.80708 -1.79985
upperneck -2.297 -11.8445 6.54736
head 0.839379 -5.94611 2.00189
lclavicle -7.55382e-15 2.8625e-14 0
lhumerus -51.519 -4.97593 81.7024
lradius 49.374 0 0
lwrist 13.7527 0 0
lhand -29.9993 -4.72184 0
lfingers 7.12502 0 0
lthumb -3.31682 25.2321 0
rclavicle -7.55382e-15 2.8625e-14 0
rhumerus 16.3743 46.8227 -76.5508
rradius 95.7332 0 0
rwrist 2.13744 0 0
rhand -16.6745 -17.2941 0
rfingers 7.12502 0 0
rthumb 9.54937 -767.058 0
751
root 3.95937 16.2442 15.2264 -163.174 0.375347 -171.481
lfemur -38.1009 8.48688 -19.428
ltibia 54.2813 -0 0
lfoot -32.6238 9.45938 0.0302151
ltoes 6.15777 -0 0
rfemur -27.6493 -33.0808 17.2898
rtibia 99.3107 -0 0
rfoot 13.5112 0.198269 -0.0325443
rtoes 18.0209 -0 0
lowerback 3.51651 6.00127 -3.46093
upperback -0.824846 7.77583 -2.11337
thorax -2.97807 3.90968 -0.740876
lowerneck -5.98365 -8.87543 -1.87572
upperneck -2.25703 -11.9058 6.69046
head 0.845968 -5.9597 2.06139
lclavicle -1.45536e-14 2.40698e-14 -3.06948e-31
lhumerus -50.9458 -5.46328 83.3809
lradius 50.5629 -0 0
lwrist 13.2698 0 0
lhand -30.2431 -5.13807 -0.00391808
lfingers 7.12502 -0 0
lthumb -3.55232 24.8151 -0.00383782
rclavicle -1.45536e-14 2.40698e-14 -3.06948e-31
rhumerus 12.5954 48.5723 -79.9303
rradius 94.9308 -0 0
rwrist 2.88617 0 0
rhand -16.2315 -16.8604 -0.0453979
rfingers 7.12502 -0 0
rthumb 9.97714 -46.6185 -0.0449363
752
root 3.8944 16.1585 15.3973 -163.262 3.14432 -171.534
lfemur -39.0999 10.4404 -20.4258
ltibia 55.7706 -0 0
lfoot -33.0339 9.92398 0.0429904
ltoes 6.88321 -0 0
rfemur -27.2183 -32.9837 18.3837
rtibia 97.3523 -0 0
rfoot 13.665 -0.883424 -0.0731558
rtoes 19.5958 -0 0
lowerback 3.65984 5.88533 -3.68136
upperback -0.726833 7.62232 -2.38738
thorax -2.94667 3.84275 -0.900382
lowerneck -5.84108 -8.94342 -1.9309
upperneck -2.1811 -11.9526 6.75985
head 0.856519 -5.95717 2.09503
lclavicle -2.19249e-14 1.78304e-14 -5.3288e-31
lhumerus -50.5184 -6.2788 84.8862
lradius 52.1436 -0 0
lwrist 12.8601 0 0
lhand -30.3667 -5.68409 -0.00728712
lfingers 7.12502 -0 0
lthumb -3.67163 24.2691 -0.00712558
rclavicle -2.19249e-14 1.78304e-14 -5.3288e-31
rhumerus 8.48457 50.0495 -83.4772
rradius 93.7851 -0 0
rwrist 3.56305 0 0
rhand -16.2276 -16.7268 -0.062276
rfingers 7.12502 -0 0
rthumb 9.9811 -46.4908 -0.0617709
753
root 3.82447 16.085 15.5633 -163.384 6.04461 -171.571
lfemur -39.9898 12.4385 -21.3848
ltibia 57.0573 -0 0
lfoot -33.2909 10.2664 0.0406636
ltoes 7.7803 -0 0
rfemur -26.6714 -32.8333 19.3488
rtibia 95.3531 -0 0
rfoot 13.987 -2.02466 -0.105459
rtoes 21.4775 -0 0
lowerback 3.78269 5.78315 -3.86658
upperback -0.636086 7.49408 -2.68341
thorax -2.90284 3.78962 -1.09983
lowerneck -5.69933 -9.00575 -1.96942
upperneck -2.07929 -11.9838 6.7695
head 0.869755 -5.94157 2.1077
lclavicle -2.86922e-14 1.07379e-14 -2.73602e-31
lhumerus -50.2267 -7.29735 86.232
lradius 53.9836 -0 0
lwrist 12.5368 0 0
lhand -30.382 -6.29803 -0.00962712
lfingers 7.12502 -0 0
lthumb -3.68645 23.6557 -0.0093982
rclavicle -2.86922e-14 1.07379e-14 -2.73602e-31
rhumerus 4.1809 51.2513 -87.0861
rradius 92.41 -0 0
rwrist 4.17388 0 0
rhand -16.5092 -16.8103 -0.0573377
rfingers 7.12502 -0 0
rthumb 9.70942 -46.5869 -0.0571148
754
root 3.75011 16.0223 15.7242 -163.518 9.05674 -171.588
lfemur -40.7977 14.4156 -22.2942
ltibia 58.1626 -0 0
lfoot -33.435 10.5874 0.0283688
ltoes 8.80067 -0 0
rfemur -26.0391 -32.6586 20.2029
rtibia 93.3252 -0 0
rfoot 14.3444 -3.23045 -0.11767
rtoes 23.3634 -0 0
lowerback 3.87833 5.69175 -4.01332
upperback -0.556639 7.38505 -2.98182
thorax -2.8499 3.74615 -1.32072
lowerneck -5.56351 -9.05709 -1.99532
upperneck -1.96173 -11.998 6.73337
head 0.884381 -5.91592 2.1043
lclavicle -3.38803e-14 3.62334e-15 4.30217e-31
lhumerus -50.0537 -8.39579 87.4337
lradius 55.9501 -0 0
lwrist 12.3132 0 0
lhand -30.3013 -6.91801 -0.0101557
lfingers 7.12502 -0 0
lthumb -3.60851 23.0368 -0.00990219
rclavicle -3.38803e-14 3.62334e-15 4.30217e-31
rhumerus -0.158265 52.1932 -90.6322
rradius 90.9194 -0 0
rwrist 4.72443 0 0
rhand -16.9231 -17.0283 -0.0404895
rfingers 7.12502 -0 0
rthumb 9.30995 -46.8192 -0.04071
755
root 3.67186 15.9688 15.8799 -163.639 12.1613 -171.574
lfemur -41.5478 16.3051 -23.1419
ltibia 59.1072 -0 0
lfoot -33.5067 10.9879 0.0126101
ltoes 9.89598 -0 0
rfemur -25.3524 -32.4878 20.9636
rtibia 91.2809 -0 0
rfoot 14.6039 -4.50556 -0.103283
rtoes 24.951 -0 0
lowerback 3.94008 5.6082 -4.11832
upperback -0.492553 7.28904 -3.26298
thorax -2.79119 3.70814 -1.54457
lowerneck -5.43871 -9.09209 -2.01256
upperneck -1.83862 -11.9941 6.66552
head 0.899099 -5.88327 2.0897
lclavicle -3.65138e-14 -2.68214e-15 1.13497e-30
lhumerus -49.9769 -9.45284 88.5071
lradius 57.9107 -0 0
lwrist 12.2024 0 0
lhand -30.1367 -7.48212 -0.0083788
lfingers 7.12502 -0 0
lthumb -3.44952 22.4742 -0.00816436
rclavicle -3.65138e-14 -2.68214e-15 1.13497e-30
rhumerus -4.3681 52.9098 -93.9825
rradius 89.4271 -0 0
rwrist 5.22048 0 0
rhand -17.3162 -17.298 -0.0209793
rfingers 7.12502 -0 0
rthumb 8.93055 -47.1001 -0.0215611
756
root 3.59023 15.923 16.0302 -163.722 15.339 -171.516
lfemur -42.2611 18.0398 -23.9152
ltibia 59.9123 -0 0
lfoot -33.5464 11.5685 0.000548942
ltoes 11.0178 -0 0
rfemur -24.6429 -32.3484 21.648
rtibia 89.2323 -0 0
rfoot 14.6319 -5.85486 -0.0618709
rtoes 25.9377 -0 0
lowerback 3.96127 5.52957 -4.1783
upperback -0.447887 7.19981 -3.50727
thorax -2.73006 3.67137 -1.75288
lowerneck -5.33005 -9.10539 -2.02511
upperneck -1.72019 -11.9707 6.57998
head 0.912613 -5.84664 2.06878
lclavicle -3.56172e-14 -7.34749e-15 1.1775e-30
lhumerus -49.9698 -10.3488 89.4664
lradius 59.7327 -0 0
lwrist 12.2176 0 0
lhand -29.9003 -7.92849 -0.00455019
lfingers 7.12502 -0 0
lthumb -3.2212 22.0294 -0.00443423
rclavicle -3.56172e-14 -7.34749e-15 1.1775e-30
rhumerus -8.28817 53.453 -97.0084
rradius 88.0472 -0 0
rwrist 5.66782 0 0
rhand -17.5351 -17.5365 -0.00574841
rfingers 7.12502 -0 0
rthumb 8.71916 -47.3416 -0.00633097
